<svg xmlns="http://www.w3.org/2000/svg" viewBox="0 0 147.96 148.1"><title>lizard</title><g id="Layer_2" data-name="Layer 2"><g id="Layer_1-2" data-name="Layer 1"><path d="M148,73.93A74,74,0,0,1,73.73,148.1C32.45,147.93-.15,114.67,0,72.93.15,32.27,35.53-.75,75,0,115,.79,148.11,33.76,148,73.93ZM106.85,63.28c3.27,5.28,2.31,8.52-2.17,12C93.52,84,82.78,93.2,72.11,102.5c-1.92,1.67-3.8,4.74-3.73,7.11.31,10.62,1.23,21.24,2.24,31.83.11,1.14,2.22,3,3.38,3a75.51,75.51,0,0,0,14.89-1.16,70.86,70.86,0,0,0,55.76-69.81c-.49-43.24-39.74-76.26-82.07-69a70.56,70.56,0,0,0-45,112.12c2.87,3.86,6.45,7.18,9.71,10.75a34.29,34.29,0,0,0,0-12.13C25.22,103.5,22.83,91.89,25.14,80c1.79-9.12,4.18-18.15,5.52-27.33a16.26,16.26,0,0,1,9-12.88c9.23-4.92,18.48-9.85,28-14.12,3.24-1.45,7.89-2.27,11-1.06,13.29,5.18,26.32,11.06,39.29,17,5.62,2.58,6,5.6,2.31,10.66a11.05,11.05,0,0,0-2,3.38C116.74,61.22,113.05,63.54,106.85,63.28ZM67,144.31c0-1.43,0-2.23,0-3-.67-9.45-1.21-18.92-2.1-28.35-.61-6.48,1.92-11.16,6.85-15.1,10.39-8.33,20.63-16.83,31-25.24,3.51-2.86,3.76-5.95-.15-8.14-2.13-1.19-5.39-1.26-7.87-.68-2.81.67-5.25,2.8-8,4-5.94,2.58-11.86,5.58-18.66,3.41-4.52-1.43-8.1-6-7.6-10,.63-4.89,4.62-6.27,8.43-6.08,9.89.49,19.77,1.56,29.62,2.65,3.61.4,7.17,2.15,10.69,2,1.93-.08,4.14-2.59,5.37-4.55.4-.64-1.51-3.69-3-4.4C103.1,46.64,94.41,42.87,85.78,39c-4.92-2.22-9.62-2.49-14.75,0S60.2,43.14,54.7,45c-1,.34-2.33-.16-3.5-.26.84-1,1.51-2.34,2.56-2.77C59.3,39.74,65,38,70.5,35.59a18.46,18.46,0,0,1,16.29.21c9.26,4.48,18.49,9.05,27.83,13.38,1,.48,2.69-.35,4.07-.58a17.12,17.12,0,0,0-1.76-3.5,6.93,6.93,0,0,0-2.6-1.42c-11.53-5.11-23-10.49-34.68-15.12a14.92,14.92,0,0,0-10.43.2,256.67,256.67,0,0,0-28,14.2,17.6,17.6,0,0,0-7,9.5,124.33,124.33,0,0,0-4.58,23.4A210.77,210.77,0,0,0,29,104.07c.34,8.1,1.84,16.17,3,24.23.18,1.34.67,3.11,1.65,3.81A62.3,62.3,0,0,0,67,144.31Zm25.63-83c-.06-.76-.13-1.53-.2-2.29-8.2-.3-16.39-.72-24.59-.77-1.28,0-3.41,1.49-3.64,2.61a6.34,6.34,0,0,0,1.44,4.89c3.2,3.51,7.58,3.42,11.58,2.07C82.51,66,87.53,63.51,92.65,61.3Z"/></g></g></svg>