<svg xmlns="http://www.w3.org/2000/svg" xmlns:xlink="http://www.w3.org/1999/xlink" viewBox="0 0 348.8 421.86"><defs><style>.cls-1{fill:none;}.cls-2{clip-path:url(#clip-path);}.cls-3{fill:#010101;}.cls-4{opacity:0.6;}.cls-5{fill:url(#_10_ppp_40_3);}.cls-6{fill:#fff;}</style><clipPath id="clip-path"><rect class="cls-1" width="28.8" height="28.8"/></clipPath><pattern id="_10_ppp_40_3" data-name="10 ppp 40% 3" width="28.8" height="28.8" patternTransform="translate(14.33 21.36) scale(0.5)" patternUnits="userSpaceOnUse" viewBox="0 0 28.8 28.8"><rect class="cls-1" width="28.8" height="28.8"/><g class="cls-2"><circle class="cls-3" cx="28.8" cy="28.8" r="2.88"/><circle class="cls-3" cx="14.4" cy="28.8" r="2.88"/><path class="cls-3" d="M0,31.68A2.88,2.88,0,0,0,2.88,28.8,2.88,2.88,0,0,0,0,25.92a2.88,2.88,0,0,0,0,5.76Z"/><path class="cls-3" d="M28.8,17.28a2.88,2.88,0,1,0-2.88-2.88A2.88,2.88,0,0,0,28.8,17.28Z"/><path class="cls-3" d="M14.4,17.28a2.88,2.88,0,1,0-2.88-2.88A2.88,2.88,0,0,0,14.4,17.28Z"/><path class="cls-3" d="M0,17.28A2.88,2.88,0,0,0,2.88,14.4,2.88,2.88,0,0,0,0,11.52a2.88,2.88,0,0,0,0,5.76Z"/><path class="cls-3" d="M28.8,2.88A2.88,2.88,0,0,0,31.68,0a2.88,2.88,0,0,0-5.76,0A2.88,2.88,0,0,0,28.8,2.88Z"/><path class="cls-3" d="M14.4,2.88A2.88,2.88,0,0,0,17.28,0a2.88,2.88,0,0,0-5.76,0A2.88,2.88,0,0,0,14.4,2.88Z"/><path class="cls-3" d="M0,2.88A2.88,2.88,0,0,0,2.88,0,2.88,2.88,0,0,0,0-2.88,2.88,2.88,0,0,0-2.88,0,2.88,2.88,0,0,0,0,2.88Z"/><path class="cls-3" d="M-14.4,2.88A2.88,2.88,0,0,0-11.52,0,2.88,2.88,0,0,0-14.4-2.88,2.88,2.88,0,0,0-17.28,0,2.88,2.88,0,0,0-14.4,2.88Z"/><path class="cls-3" d="M-14.4,0"/><path class="cls-3" d="M7.2,24.48A2.88,2.88,0,1,0,4.32,21.6,2.88,2.88,0,0,0,7.2,24.48Z"/><circle class="cls-3" cx="21.6" cy="21.6" r="2.88"/><path class="cls-3" d="M7.2,10.08A2.88,2.88,0,1,0,4.32,7.2,2.88,2.88,0,0,0,7.2,10.08Z"/><circle class="cls-3" cx="21.6" cy="7.2" r="2.88"/><path class="cls-3" d="M-7.2,10.08A2.88,2.88,0,0,0-4.32,7.2,2.88,2.88,0,0,0-7.2,4.32,2.88,2.88,0,0,0-10.08,7.2,2.88,2.88,0,0,0-7.2,10.08Z"/><path class="cls-3" d="M-7.2,7.2"/></g></pattern></defs><title>lose</title><g id="Layer_2" data-name="Layer 2"><g id="Layer_1-2" data-name="Layer 1"><g class="cls-4"><path class="cls-5" d="M35.86,291.1c14.7,30,52.77,21.38,52.77,21.38s7.82,52.7,66.62,66.21c38.58,8.86,66.21-20.33,66.21-20.33s35.45,21.37,61-1.57,22.93-60.47,22.93-60.47,26.59,6.78,39.1-34.93S338.24,206,338.24,206s18.92-46.38-20.33-86.9c-32.33-33.36-62-14.59-62-14.59S240.75,60.15,189.66,69s-44.84,38.57-44.84,38.57-34.41-22.41-58.91,3.65-4.17,43.15-4.17,43.15-27.63-8.22-40.66,21,16.16,43.79,16.16,43.79S11.88,242.1,35.86,291.1Z"/><path class="cls-5" d="M84.21,58c2.05,12.3,27.56,9.85,27.56,9.85s-8.48,28.66,18.72,17,13.78-27.2,2.12-26.85c0,0,15.54-5.3,10.24-20.49S78.2,22,84.21,58Z"/><circle class="cls-5" cx="282.22" cy="46.86" r="18.9"/><path class="cls-5" d="M43.58,338.84c-17.21,10.27.71,36.39,16.25,30.74,0,0,0,21.2,19.43,13.42S82.09,315.88,43.58,338.84Z"/><circle class="cls-5" cx="270.56" cy="406.14" r="15.72"/></g><path class="cls-6" d="M9.85,265.09c14.7,30,52.77,21.38,52.77,21.38s7.81,52.7,66.62,66.2c38.57,8.87,66.21-20.33,66.21-20.33s35.45,21.38,61-1.56,22.94-60.48,22.94-60.48,26.59,6.78,39.1-34.93-6.26-55.43-6.26-55.43,18.92-46.37-20.33-86.89c-32.32-33.37-62-14.6-62-14.6S214.74,34.14,163.64,43s-44.83,38.58-44.83,38.58S84.4,59.16,59.9,85.23s-4.17,43.14-4.17,43.14-27.63-8.21-40.67,21,16.16,43.8,16.16,43.8S-14.13,216.08,9.85,265.09Z"/><path class="cls-3" d="M324.15,192a34.66,34.66,0,0,0-5.51-10.51c-1.95-2.59-2.6-2.12-2.3-2.95,10.5-28.84,1.41-60.8-17.81-83.57-15.59-18.45-42.88-30.54-66-20.24C222.47,50.38,197,38.55,171.55,40,152.79,41,116.31,52.19,114.64,75.89,99.4,69,81.78,68.78,66.73,76.7,51,85,37.25,108.77,47.9,124.91,13.46,124.72-7.59,173.77,26,193.69.13,209-6.28,239.21,6.08,266.1c10.55,19.51,32.18,26.23,53.08,23,10.76,60.19,91.53,88.22,136.32,46.74,18.43,9.55,44.13,11.82,60.87-1.88,17.82-14.58,27.23-38,26.92-60.9,15.38,0,28.91-13.35,34.69-26.69C325.21,229.62,329.58,209.88,324.15,192ZM317,227c-2.93,15-14.27,46.18-35.31,41.23-1.85-.44-6.23.54-6.08,3.05,1,16.79-4,34.4-13.08,48.4-14.76,22.86-42.43,23.55-64.09,10.81-1.6-.95-4.8-.06-6,1.2-41.81,43.28-117.33,9.47-126-46.26-.25-1.63-3.33-1.08-4.27-.88-19,4.12-39.09-3.11-48.49-20.5-11.88-25.83-6.87-55.94,19.94-69.82,1.13-.58,2.19-2.15.66-2.94-12-6.23-19.66-18.56-18.44-32.17,1.65-18.33,19.3-33.87,37.64-28.73,1.26.35,8.07-1.53,5.81-3.52-12.09-10.61-7.42-26.67,1-37.93,13.71-18.39,38-16.73,55.61-5.57,1.63,1,7.26-.27,6.77-2.83-5.22-27,35.34-36.47,53.87-36.59,21.58-.15,42.49,15.14,49.64,35.48.76,2.17,4.82.89,6.1.11,30-18.29,63.22,17.17,74.33,41.8,8,17.67,9.17,40.82,1.94,59a1,1,0,0,0,.27,1C321.71,191.36,319.67,213.37,317,227Z"/><path class="cls-6" d="M58.2,32c2,12.29,27.55,9.85,27.55,9.85s-8.48,28.65,18.73,17S118.25,31.62,106.59,32c0,0,15.55-5.3,10.25-20.49S52.19-4.06,58.2,32Z"/><path class="cls-3" d="M112.59,30.78c7-4.29,10.38-11.45,8-20.3C118.46,2.43,105.05.76,98.46.2,77.85-1.56,51.23,8.33,54.43,33c3,10.5,17.51,11.29,27.28,10.71-3.37,13.59,2.9,21.7,17.47,18.5,9.28-2,23.77-8.81,24.95-19.56C124.85,36.1,118.46,32.1,112.59,30.78Zm-20.84,28c-5.32-3-3.61-12.89-2.27-17.59.32-1.11-1.5-1.14-2.14-1.08C78.93,40.87,64.75,40.9,62,31,59.29,10.37,77.55,2.19,95.54,3.72c5.7.49,11.85,2.18,16,6.27,6.5,6.38,1.11,18.2-6.32,20.93-1.14.42-4,2.64-1,2.74,5.77.19,10.8,3.29,12.32,9C119.15,52.6,99.08,63,91.75,58.81Z"/><circle class="cls-6" cx="256.21" cy="20.85" r="18.9"/><path class="cls-3" d="M233.54,21.86C232.86,34.43,246.15,43,257.6,41.17s20.62-9.11,21.27-21.33C277.38-8,234.94-4,233.54,21.86Zm16.67,14c-6-3.1-8.79-9.62-9.14-16-.6-11.28,10.89-19.3,21.14-14,6,3.1,8.79,9.62,9.13,16C270.75,32.81,261.5,41.7,250.21,35.85Z"/><path class="cls-6" d="M17.57,312.83c-17.21,10.27.71,36.39,16.25,30.74,0,0,0,21.19,19.43,13.42S56.08,289.87,17.57,312.83Z"/><path class="cls-3" d="M50.29,310c-10.88-7.54-25.16-3.24-35.62,2.69a2.41,2.41,0,0,0-.66.49c-16.52,12.08-1.07,33.56,16.09,32.35.46,9,6,15.12,15.35,14.7,11.41-.52,18.78-7.46,19.67-18.57C66.08,329.77,60.06,316.75,50.29,310Zm-4.86,46.8c-5.77-1.24-7.78-9.18-7.84-14.22,0-1.17-3.66-.36-4.1-.24-14.78,4.26-25.66-20.73-13-29.32,19.5-11.06,34.84,6.95,37,25.44C58.34,345.89,56.27,359.1,45.43,356.78Z"/><circle class="cls-6" cx="244.55" cy="380.13" r="15.72"/><path class="cls-3" d="M264,379.28s0-.1,0-.16c-1.29-23.82-37.78-21.31-39,1.38-1.31,24.16,37.78,22.34,39-.74A1.83,1.83,0,0,0,264,379.28Zm-19.8,14c-6.51-.35-10.6-6.71-11.53-12.47-1.2-7.35,4.9-14.26,12.19-13.87,7.06.38,11.07,7.46,11.58,13.72C256,387.61,251.82,393.71,244.22,393.3Z"/></g></g></svg>