<svg xmlns="http://www.w3.org/2000/svg" viewBox="0 0 147.96 147.96"><title>paper</title><g id="Layer_2" data-name="Layer 2"><g id="Layer_1-2" data-name="Layer 1"><path d="M73.86,148C32.72,147.9,0,114.87,0,73.47,0,32.77,33.35-.16,74.34,0,115.06.16,148,33.16,148,73.7A73.83,73.83,0,0,1,73.86,148ZM8.92,46c-14.07,37.78.9,74.88,34,91.45,32.6,16.32,71.89,4.57,91.27-26.51C153,80.75,145.31,40.16,117.46,18.12S49.89,2.61,36.14,15.51C41.25,19,45.87,22.71,51,25.45a223,223,0,0,0,20.4,9.26c15.51,6.4,27.93,16.82,37.9,30,4.2,5.55,6.66,12.33,3.29,19.66a7.48,7.48,0,0,0-.17,3.35c.43,6.33-1.94,9.17-8,10.43a9.27,9.27,0,0,0-5,3.14c-3.21,4.08-7.12,5.75-11.72,3.38-7.76-4-15.24-8.49-22.9-12.82l1.12,2.89c1.46,3.81.58,7-3,9s-7.69,2.79-11-.53C45,96.26,37.86,89.43,31.51,82c-2.45-2.88-3.14-7.34-4.4-11.16-.66-2-.12-4.76-1.31-6.18C20.62,58.46,15,52.66,8.92,46ZM56.86,82.46l1-.72c1.46,1,2.91,2,4.38,2.9,8.66,5.54,17.27,11.16,26,16.55,2.8,1.73,5.85,1.61,8-1.39,2.29-3.27-.62-5-2.57-6.48-7.59-5.95-15.37-11.67-23-17.58A22.09,22.09,0,0,1,67.57,72l1.06-1a7.36,7.36,0,0,1,2.22.75C80.08,78.82,89.17,86.1,98.56,93c1.78,1.3,4.78,1.54,7.09,1.26,1.25-.14,3.4-2.81,3.11-3.64a10.57,10.57,0,0,0-4-4.73C95.27,79.2,85.6,72.76,76.07,66.12c-1.07-.75-1.61-2.26-2.4-3.41l1-.88,33.45,22.79c4.12-6.16,3.84-7.35-1.66-9.46C96.22,71.27,87.85,64.85,80.69,56.77c-.92-1.05-1.18-2.68-1.74-4l1.44-1c8.12,8.68,16.53,16.91,28.71,20.57a15.53,15.53,0,0,0-.34-2.76,7.63,7.63,0,0,0-1.24-2.14C98.6,57,89.06,47.53,76.71,40.88,62.12,33,44.56,30.37,33.6,16.1c-9.26,6.76-16.55,14.57-21.67,24.37-1.32,2.53-1,3.91,1.23,5.86A100.69,100.69,0,0,1,26,59.49a21.54,21.54,0,0,1,4.21,10.7A17.65,17.65,0,0,0,35.74,82c6.07,5.93,12.08,11.92,17.88,18.11,2.53,2.7,5.3,2.72,7.34.57,1.23-1.3,1.38-4.39.86-6.37-.68-2.67-2.58-5-3.76-7.56A27.74,27.74,0,0,1,56.86,82.46Z"/></g></g></svg>