<svg xmlns="http://www.w3.org/2000/svg" viewBox="0 0 147.96 147.96"><title>rock</title><g id="Layer_2" data-name="Layer 2"><g id="Layer_1-2" data-name="Layer 1"><path d="M74,0C114.67,0,147.92,33,148,73.34c0,41.38-32.72,74.49-73.79,74.62C33,148.08,0,114.87,0,73.24,0,33,33.35,0,74,0Zm40.1,16.32C92.79-.47,51.22-3.26,24,24c-25,25-27.63,65.38-5.93,93.35,24.23,31.23,66.58,34.12,93.62,16.47,28.43-18.56,36.92-50.65,31-72.57-4,2.83-7.65,6.17-11.91,8.28-8.16,4-10.44,10.5-10.88,19.1-.62,12-6.49,21.11-18.43,25.24-4.69,1.62-9.53,2.82-14.25,4.39-8.06,2.67-14.89-2.12-22.28-3.52a2.58,2.58,0,0,1-1.58-1.16c-2.16-3.86-5.77-5.54-9.64-7.18-1.6-.68-2.69-2.74-3.83-4.3-.75-1-1-2.48-1.79-3.45-4.15-5-8.49-9.77-12.58-14.78a5.57,5.57,0,0,1-.85-3.77c1-9.57,2-19.15,3.4-28.67C39.17,44,44.25,40.1,51.16,38c13-4,26.18-6.1,39.81-5.15a8.61,8.61,0,0,0,5.53-1.35C102.45,26.68,108.12,21.55,114.13,16.32ZM80,115.19l.5,1.52c7.07-2.24,14.12-4.51,21.2-6.7,5.63-1.75,9.94-5.46,11.72-10.75a89.11,89.11,0,0,0,3.83-19.33c.4-3.92,1.79-6.29,5-8.38,6-3.93,11.77-8.14,17.45-12.48,1.19-.9,2.5-3.08,2.2-4.28-3.82-15-12.43-26.82-24.78-36.52C111.66,23,106.4,27.35,101.46,32c-3.09,2.92-6.24,4.37-10.65,4-13.1-1-25.84,1.26-38.34,5-5.35,1.62-10.09,4.28-11,10.29C40,60.72,39,70.13,38.05,79.53c-.13,1.21.91,2.55,1.4,3.82l1.47-.17c.37-1.53.75-3.05,1.1-4.58,1.57-7,3-13.94,4.78-20.86.33-1.34,1.7-2.41,2.59-3.61.21,1.42.81,2.92.54,4.24-1.81,8.94-3.88,17.83-5.7,26.77-.94,4.63.82,8,5.54,10,.42-2.09.75-3.87,1.14-5.64,1.56-7.12,3.06-14.26,4.78-21.34.3-1.27,1.49-2.32,2.27-3.48l1.41.79c-.21,1.42-.36,2.84-.65,4.24-1.82,8.94-3.8,17.85-5.47,26.81-1,5.57.29,7.05,6.68,8.32C60.6,99.8,61,94.66,62,89.66c1-4.56,0-9.87,4.34-13.42a16.59,16.59,0,0,1,.17,5.94c-.88,7.59-2.07,15.15-2.64,22.76-.43,5.75,2.31,8.87,8,7.92a48.82,48.82,0,0,0,15.46-5.92c7.55-4.24,9.08-14.53,3.4-22.47-1.62,1.76-3.14,3.43-4,4.35.63,2.92,1.08,5,1.52,7l-4.69-1.95-6.31,6.66-.5-1,6.42-20.23,1.23.11q.45,2.59.88,5.21l1.48.19c.34-2.14.67-4.28,1-6.44,4.31,0,8.3,3.22,11.85,9.09,2.13,3.52,1,4.58-2.94,4.4C100.13,106.26,89.18,110.06,80,115.19Z"/></g></g></svg>