<svg xmlns="http://www.w3.org/2000/svg" viewBox="0 0 147.96 147.96"><title>scissors</title><g id="Layer_2" data-name="Layer 2"><g id="Layer_1-2" data-name="Layer 1"><path d="M73.93,0c40.67,0,74,32.94,74,73.25.06,41.57-33,74.85-74.2,74.71S0,114.75,0,73.33C0,33,33.29,0,73.93,0Zm66.91,52.8C137.4,26.94,103.09,2.39,72.39,3.6,33.4,5.13,4.84,33.13,3.46,72.3,2.14,109.65,30.27,139.06,62,143.71c33.67,4.94,70.09-15.41,76.24-41.71-5.45-.87-9.77-.24-13.78,4.82-3.2,4-8.54,8.32-13.27,8.75-9.27.83-18.34,1.4-26.86,5.49a5.83,5.83,0,0,1-1.45.37c-9,1.67-15.29-1.43-19.5-9.5-.36-.7-.83-1.64-1.45-1.86-6.34-2.18-8.65-7.23-9.13-13.68-10.57,0-20.55.15-30.52-.06-4.85-.1-7.2-2.91-7.26-7.66-.07-4.93,2.38-8.19,6.79-8.89,2.13-.34,4.29-.5,6.43-.78l35.25-4.74a9.53,9.53,0,0,0-4.15-3.45c-10-4.89-20.06-9.62-30-14.71-5.25-2.7-7-6.59-5.38-10.35,1.72-4,5.9-5.44,11.43-3.79,12.41,3.69,24.85,7.27,37.19,11.15,3.15,1,4.81.57,7-2.12,10.89-13.19,18.59-14.48,33.6-6.21,1.74,1,3.71,1.72,5.11,3.06C124.89,54.12,132.88,53.07,140.84,52.8ZM71.5,74.18,71,75.72c-3.53.75-7,1.72-10.61,2.22q-18.77,2.64-37.56,5c-3.82.47-4.88,3.14-4.33,6,.32,1.6,2.82,3.94,4.36,4,16.45.17,32.94,1,49.24-2.46a185,185,0,0,1,19.24-2.67c3-.33,6.12.61,6,4.28-.08,2.65,1,3.66,2.93,4.83,3.93,2.4,4.92,5.59,2.15,9.64-1.27,1.86-2.23,3.94-3.39,6,11,2.44,19.12-1.24,24.91-9.93,2.32-3.48,4.9-5.08,9-4.46a9,9,0,0,0,4.45-.07c1.56-.62,3.67-1.76,4.06-3.11a76.06,76.06,0,0,0,1.95-34.53c-.44-2.56-1.38-3.85-4.11-3.7-9.94.54-19-1.77-26.67-8.45A14,14,0,0,0,110,46.78c-11.35-6.23-17.94-5-26.72,4.86-3.07,3.43-5.18,7.3-4.15,11.76,1.16,5,3.32,9.83,5,14.76,4.55-1.24,6.32-4,6.86-7.73.4-2.8.35-5.82,1.46-8.31a7.17,7.17,0,0,1,4.87-3.68c2.55-.26,4.09,1.75,3.72,4.67-1.21,9.58.93,17.26,11.57,20,.31.08.75.24.84.48.28.68.74,1.59.49,2.09s-1.35.72-2,.6c-9.4-1.62-14.31-7.71-14.22-17.47,0-2.28,0-4.57,0-6.86l-1.71-.08c-.4,2.21-.84,4.41-1.19,6.63C94.09,73.35,93.3,78.12,88,80.4c-3.92,1.69-6.84.49-8-3.61-1.85-6.24-3.58-12.51-5.62-19.67C61.29,53.2,47,48.83,32.69,44.77c-1.47-.42-4.27.51-5,1.7s.28,3.71,1.31,5c1.16,1.47,3.15,2.41,4.92,3.29C45,60.22,56,65.54,67,71A33.1,33.1,0,0,1,71.5,74.18Zm-15,21.93c.65,7.53,3.92,11.55,9.29,10.77,9.24-1.33,18.13-4,25.23-10.53A27.41,27.41,0,0,0,94.2,92l-.81-1.52ZM67,110.42c.23,5.45,4.11,7,8,7.43,11.32,1.29,19.71-2,24.75-13.49.51-1.17.15-3.73-.68-4.25-1.55-1-4.59-1.93-5.53-1.14C85.8,105.44,76.59,108.28,67,110.42Z"/></g></g></svg>