<svg xmlns="http://www.w3.org/2000/svg" viewBox="0 0 147.96 147.96"><title>spock</title><g id="Layer_2" data-name="Layer 2"><g id="Layer_1-2" data-name="Layer 1"><path d="M74.37,0C114.85.06,148.06,33.32,148,73.69A74,74,0,0,1,73.83,148C32.56,147.86-.15,114.6,0,72.89.14,32.74,33.61-.06,74.37,0ZM113,39.3c5.88,2.77,6.91,4.59,5,10.57-.59,1.9-1.42,3.74-1.83,5.68-1.9,9-5.17,17.27-3.78,27.33,1.9,13.78.07,28-11,38.86a4.31,4.31,0,0,0-1.41,2.5c-.13,5-.06,10.08-.06,15.38,29.62-11.73,50.65-43.83,43-81.16C137.15,29.77,108-1.06,64.62,4,34,7.61,3.77,34.54,3.27,73.08c-.4,30.43,24.13,64.33,49.6,68,.58-7.81,1.59-15.45-6.59-20.72-2.8-1.8-5-4.94-6.76-7.91-3.78-6.56-9.25-11.09-15.34-15.34a27.79,27.79,0,0,1-8.44-9.38C13.21,82.9,16,78.44,21.19,77a17.23,17.23,0,0,1,14.33,2.15c3.79,2.39,7.53,4.89,11.34,7.25,1.44.89,3,1.53,5.15,2.59,0-2.29,0-3.61,0-4.93q-.47-23.47-.92-46.94C51,30.16,53.36,27,59.76,25A6.19,6.19,0,0,0,63,23.13C65.84,19,69.79,17,74.56,18.27c5,1.37,4.8,6.2,5.41,10.28,1.39,9.25,2.78,18.5,4.39,29.16,1.25-2.77,2-4.2,2.55-5.68,2.75-7,5.34-14,8.24-20.84s10.16-8.29,14.23-2.68C111.34,31.21,111.67,35.08,113,39.3ZM64.54,73.43c.74-1.67,1.34-3,1.88-4.27s1.71-2.93,1.54-4.27Q66,48.81,63.49,32.8c-.22-1.46-1.78-4-2.12-3.93a11.31,11.31,0,0,0-5.43,2.83c-1,1.17-1.3,3.37-1.27,5.1.13,7,.69,14,.77,21,.14,11.4,0,22.81,0,35.31-3.59-1.16-5.92-1.53-7.84-2.61-4.35-2.43-8.3-5.65-12.8-7.71a28.86,28.86,0,0,0-11.28-2.62c-4.93-.09-6.62,3.54-4.16,7.86a11,11,0,0,0,3.27,3.68c9,5.94,16.72,13.08,22.33,22.38a8.48,8.48,0,0,0,2.33,2.58q11.78,8.2,9.39,22.29c-.56,3.28,1.3,4.66,4.13,4.68,9,.07,18,.63,26.9-.3,9.11-1,9-1.63,8.82-10.92,0-2.17-.44-4.39-.08-6.48s.87-4.87,2.34-6.16c6.67-5.82,8.66-13.72,10-21.76.8-5,.43-10.21.36-15.32,0-3.58-1.28-7.31-.59-10.69,1.52-7.46,3.94-14.74,5.93-22.11.67-2.49,2-5.35-1.54-6.81s-5.1.73-6.09,3.77c-2.25,6.94-4.79,13.8-6.78,20.81-.64,2.25.08,4.88.18,7.34a5.64,5.64,0,0,1,0,2.2,1.82,1.82,0,0,1-1.67.59c-2.94-1.94-5.79-4-10-7,9,.53,8.41-5.92,10.2-10.48,2.95-7.54,5.77-15.13,8.83-22.63,1.51-3.72.69-7-2.61-8.39-3.6-1.51-5.6.15-6.89,3.46Q92.21,47.8,86.16,62.81c-.55,1.35-1.72,2.45-3.26,4.58-.61-2.29-.89-3-1-3.83C80,51.24,78,38.93,76.25,26.59c-.49-3.48-1.4-5.91-5.46-5.24s-5.7,3.85-4.78,8c1.14,5.19,1.66,10.53,3.07,15.62,2.3,8.29-1.36,18.24,6.87,24.88,0,0-.07.31-.08.33Z"/><path d="M81.34,117.12c-.55-1.53-1.1-2.75-1.44-4-2.81-10.59-6-13.26-17.09-14.44-.93-.1-1.78-1-2.67-1.49.61-.65,1.2-1.85,1.84-1.88,5.23-.25,10.3.34,14.3,4.24,4.58,4.46,7.06,9.84,6.79,16.32C83.06,116.13,82.35,116.39,81.34,117.12Z"/></g></g></svg>