<svg xmlns="http://www.w3.org/2000/svg" xmlns:xlink="http://www.w3.org/1999/xlink" viewBox="0 0 162.99 139.1"><defs><style>.cls-1{fill:none;}.cls-2{clip-path:url(#clip-path);}.cls-3{fill:#010101;}.cls-4{opacity:0.6;}.cls-5{fill:url(#_10_ppp_40_3);}.cls-6{fill:#fff;}</style><clipPath id="clip-path"><rect class="cls-1" width="28.8" height="28.8"/></clipPath><pattern id="_10_ppp_40_3" data-name="10 ppp 40% 3" width="28.8" height="28.8" patternTransform="translate(14.33 21.36) scale(0.5)" patternUnits="userSpaceOnUse" viewBox="0 0 28.8 28.8"><rect class="cls-1" width="28.8" height="28.8"/><g class="cls-2"><circle class="cls-3" cx="28.8" cy="28.8" r="2.88"/><circle class="cls-3" cx="14.4" cy="28.8" r="2.88"/><path class="cls-3" d="M0,31.68A2.88,2.88,0,0,0,2.88,28.8,2.88,2.88,0,0,0,0,25.92a2.88,2.88,0,0,0,0,5.76Z"/><path class="cls-3" d="M28.8,17.28a2.88,2.88,0,1,0-2.88-2.88A2.88,2.88,0,0,0,28.8,17.28Z"/><path class="cls-3" d="M14.4,17.28a2.88,2.88,0,1,0-2.88-2.88A2.88,2.88,0,0,0,14.4,17.28Z"/><path class="cls-3" d="M0,17.28A2.88,2.88,0,0,0,2.88,14.4,2.88,2.88,0,0,0,0,11.52a2.88,2.88,0,0,0,0,5.76Z"/><path class="cls-3" d="M28.8,2.88A2.88,2.88,0,0,0,31.68,0a2.88,2.88,0,0,0-5.76,0A2.88,2.88,0,0,0,28.8,2.88Z"/><path class="cls-3" d="M14.4,2.88A2.88,2.88,0,0,0,17.28,0a2.88,2.88,0,0,0-5.76,0A2.88,2.88,0,0,0,14.4,2.88Z"/><path class="cls-3" d="M0,2.88A2.88,2.88,0,0,0,2.88,0,2.88,2.88,0,0,0,0-2.88,2.88,2.88,0,0,0-2.88,0,2.88,2.88,0,0,0,0,2.88Z"/><path class="cls-3" d="M-14.4,2.88A2.88,2.88,0,0,0-11.52,0,2.88,2.88,0,0,0-14.4-2.88,2.88,2.88,0,0,0-17.28,0,2.88,2.88,0,0,0-14.4,2.88Z"/><path class="cls-3" d="M-14.4,0"/><path class="cls-3" d="M7.2,24.48A2.88,2.88,0,1,0,4.32,21.6,2.88,2.88,0,0,0,7.2,24.48Z"/><circle class="cls-3" cx="21.6" cy="21.6" r="2.88"/><path class="cls-3" d="M7.2,10.08A2.88,2.88,0,1,0,4.32,7.2,2.88,2.88,0,0,0,7.2,10.08Z"/><circle class="cls-3" cx="21.6" cy="7.2" r="2.88"/><path class="cls-3" d="M-7.2,10.08A2.88,2.88,0,0,0-4.32,7.2,2.88,2.88,0,0,0-7.2,4.32,2.88,2.88,0,0,0-10.08,7.2,2.88,2.88,0,0,0-7.2,10.08Z"/><path class="cls-3" d="M-7.2,7.2"/></g></pattern></defs><title>tie</title><g id="Layer_2" data-name="Layer 2"><g id="Layer_1-2" data-name="Layer 1"><g class="cls-4"><path class="cls-5" d="M132,26.7s-9.75,33,27.41,53.78c0,0-23.72,0-19,26.61,0,0-36.59-3.33-39.4,30.73,0,0-20.82-21.57-45.3-14.15,0,0,.93-32.18-27.49-51.53,0,0,30.76-5,43-49.95C71.17,22.19,97,50.79,132,26.7Z"/></g><path class="cls-6" d="M124.18,14.89s-9.75,33,27.41,53.79c0,0-23.72,0-19,26.61,0,0-36.58-3.33-39.4,30.72,0,0-20.81-21.57-45.29-14.14,0,0,.93-32.19-27.49-51.54,0,0,30.76-5,42.95-49.95C63.37,10.38,89.15,39,124.18,14.89Z"/><path class="cls-3" d="M152.73,67.93c-18.1-10.37-33.37-31.14-27.14-53a.4.4,0,0,0,0-.23c.13-.62-.73-.75-1.56-.56a1.94,1.94,0,0,0-.82.27C110,23.22,94.86,26.45,79.91,20.16A43.91,43.91,0,0,1,64.71,9.79c-.68-.75-2.54-.18-2.8.75C57.5,26.36,49.73,41.6,36.4,51.7,32,55,25.29,58.65,20.59,59.44c-.6.1-2.39.88-1.31,1.64,16,11.18,27.66,31,27.18,51,0,.83,1.1.81,1.67.65,15.57-4.36,32.7,2.61,43.74,13.92.62.64,2.69.27,2.79-.75,1.26-13,8.09-23.3,20.66-27.55a42.23,42.23,0,0,1,16.74-2.11c.67,0,2.14-.38,2-1.29-1.35-8.38-.48-17.38,7.19-22.37a21.68,21.68,0,0,1,9.81-3C151.6,69.57,154,68.68,152.73,67.93ZM139.4,71.51c-8.07,4.84-9.55,14.15-8.44,22.76a49.48,49.48,0,0,0-18,3.07c-11.73,4.23-18.78,14-20.81,25.79-11.45-10.36-27.64-16-42.8-12.51.06-19.54-10.93-38.54-26.36-50,21.31-5.24,34.9-28,41-47.66a50.11,50.11,0,0,0,16.72,9.91c14.12,5.22,28.93,1.85,41.43-5.62-4.7,20.76,9.18,40.28,26.17,50.89A26.75,26.75,0,0,0,139.4,71.51Z"/><path class="cls-3" d="M97.59.93l-3.25,15.9c-.19,1,2.71.46,2.89-.42L100.47.51c.2-.94-2.7-.45-2.88.42Z"/><path class="cls-3" d="M140.07,45.64l21.82-7.32c1.68-.56,1.34-2-.38-1.41l-21.82,7.31c-1.68.57-1.34,2,.38,1.42Z"/><path class="cls-3" d="M141.21,83.35l15,7.59c1,.48,3.58-.86,2.28-1.51l-15-7.59c-1-.48-3.58.85-2.28,1.51Z"/><path class="cls-3" d="M113.27,110.28,124,126c.64.93,3.43-.09,2.68-1.2L116,109.08c-.64-.93-3.43.09-2.68,1.2Z"/><path class="cls-3" d="M49.44,25.62,26.25,6.47c-.79-.65-3.49.48-2.69,1.14L46.75,26.75c.79.66,3.49-.48,2.69-1.13Z"/><path class="cls-3" d="M36.06,91.61l-26,14.65c-1.69,1,.93,1.1,1.74.64l26-14.65c1.69-1-.93-1.09-1.74-.64Z"/><path class="cls-3" d="M17.55,56.37,2.29,55.51c-.55,0-3.29,1-1.9,1.09l15.26.86c.55,0,3.29-1,1.9-1.09Z"/><path class="cls-3" d="M69.73,123.66l-3.1,15.17c-.12.58,2.71.14,2.85-.53l3.1-15.18c.12-.58-2.71-.14-2.85.54Z"/></g></g></svg>